<svg width="31" height="22" viewBox="0 0 31 22" fill="none" xmlns="http://www.w3.org/2000/svg">
<path d="M0.643127 12.9634L1.92937 16.5624" stroke="white" stroke-linecap="round"/>
<rect width="4.15904" height="1.90565" transform="matrix(0.937399 -0.348283 0.335846 0.941926 1.13751 13.8732)" stroke="white"/>
<rect width="16.6289" height="3.80788" transform="matrix(0.937465 -0.3481 0.336023 0.94186 4.68958 11.476)" stroke="white"/>
<rect width="8.32097" height="5.71993" transform="matrix(0.937374 -0.348353 0.335779 0.941951 19.9502 4.7984)" stroke="white"/>
<path d="M27.4199 1L29.9923 8.19805" stroke="white" stroke-linecap="round"/>
<path d="M19.3863 21L14.9769 12.6364L10.6805 21" stroke="white" stroke-linecap="round"/>
<path d="M17.4353 12.6363C17.4353 14.001 16.3513 15.0917 15.0334 15.0917C13.7154 15.0917 12.6315 14.001 12.6315 12.6363C12.6315 11.2716 13.7154 10.181 15.0334 10.181C16.3513 10.181 17.4353 11.2716 17.4353 12.6363Z" fill="white" stroke="white"/>
</svg>
