<svg width="20" height="20" viewBox="0 0 20 20" fill="none" xmlns="http://www.w3.org/2000/svg">
<path d="M1.71651 5.34535C3.13569 2.82517 5.67171 1.01785 8.65322 0.594732C7.50276 1.78748 5.96738 3.72082 5.1227 6.23909C5.00831 6.22436 4.89557 6.20892 4.78468 6.19274C4.01515 6.08047 3.35148 5.93522 2.8395 5.75494C2.30826 5.56789 2.02219 5.37083 1.90687 5.20938L1.71651 5.34535ZM4.64032 7.18226C4.70647 7.19191 4.77319 7.2013 4.84046 7.21045C4.62605 8.08156 4.5 9.01323 4.5 10C4.5 11.0899 4.65377 12.1125 4.91051 13.0606C4.88811 13.066 4.86579 13.0714 4.84354 13.0769C4.09914 13.2592 3.42797 13.4827 2.88008 13.744C2.39677 13.9745 1.96837 14.2535 1.68266 14.594C0.929031 13.2325 0.5 11.6664 0.5 10C0.5 8.59884 0.803336 7.26854 1.34792 6.07117C1.65376 6.34344 2.06805 6.54349 2.50738 6.69818C3.10477 6.90853 3.83901 7.06536 4.64032 7.18226ZM5.89164 12.8555C5.64681 11.9699 5.5 11.0155 5.5 10C5.5 9.05323 5.62761 8.15961 5.84329 7.32531C7.00805 7.43642 8.2741 7.48724 9.5 7.49785V12.5052C8.24502 12.5313 7.00579 12.6544 5.89164 12.8555ZM5.21163 14.0169C6.07181 16.4104 7.54205 18.2533 8.65322 19.4053C5.76915 18.996 3.30193 17.2915 1.85921 14.8994L2.40687 15.2906C2.54248 15.1008 2.83173 14.875 3.31055 14.6466C3.77828 14.4235 4.38002 14.22 5.08146 14.0481C5.12452 14.0376 5.16792 14.0272 5.21163 14.0169ZM6.20343 13.8158C7.22048 13.6399 8.35049 13.5303 9.5 13.5054V18.8412C8.45711 17.7839 7.0409 16.0593 6.20343 13.8158ZM9.5 6.49781C8.36676 6.48781 7.2104 6.4429 6.1434 6.34868C6.97182 4.02492 8.43176 2.2418 9.5 1.15876V6.49781ZM10.5 6.49781V1.19688C11.5962 2.30456 13.0747 3.9857 13.8924 6.3455C12.8155 6.44189 11.6459 6.4877 10.5 6.49781ZM14.9093 6.23494C14.059 3.62397 12.4652 1.76875 11.3076 0.589257C14.3061 1.00204 16.8581 2.81414 18.2835 5.34535L18.0931 5.20938C17.9778 5.37083 17.6917 5.56789 17.1605 5.75494C16.6485 5.93522 15.9848 6.08047 15.2153 6.19274C15.1148 6.2074 15.0127 6.22146 14.9093 6.23494ZM10.5 7.49785C11.7345 7.48716 13.0096 7.43571 14.1811 7.32298C14.3821 8.14221 14.5 9.03338 14.5 10C14.5 11.0391 14.3637 11.9911 14.1345 12.8602C13.0136 12.6563 11.7648 12.5315 10.5 12.5052V7.49785ZM15.1136 13.0664C15.3557 12.1335 15.5 11.1125 15.5 10C15.5 8.99544 15.3824 8.06537 15.1812 7.20749C15.2412 7.19928 15.3006 7.19087 15.3597 7.18226C16.161 7.06536 16.8952 6.90853 17.4926 6.69818C17.932 6.54349 18.3462 6.34344 18.6521 6.07117C19.1967 7.26854 19.5 8.59884 19.5 10C19.5 11.6664 19.071 13.2325 18.3173 14.594C18.0316 14.2535 17.6032 13.9745 17.1199 13.744C16.572 13.4827 15.9009 13.2592 15.1565 13.0769C15.1422 13.0734 15.1279 13.0699 15.1136 13.0664ZM10.5 13.5054C11.6632 13.5306 12.8064 13.6426 13.8328 13.8221C13.0044 16.0941 11.57 17.7218 10.5 18.8031V13.5054ZM14.8215 14.0247C14.854 14.0325 14.8864 14.0403 14.9185 14.0481C15.62 14.22 16.2217 14.4235 16.6895 14.6466C17.1683 14.875 17.4575 15.1008 17.5931 15.2906L18.1408 14.8994C16.6915 17.3023 14.2085 19.0114 11.3076 19.4107C12.4264 18.2707 13.9528 16.4995 14.8215 14.0247Z" stroke="white"/>
</svg>
